<?xml version="1.0" standalone="no"?>
<!DOCTYPE svg PUBLIC "-//W3C//DTD SVG 1.1//EN" 
"http://www.w3.org/Graphics/SVG/1.1/DTD/svg11.dtd">

<svg width="100%" height="100%" version="1.1"
xmlns="http://www.w3.org/2000/svg">

<line x1="0" y1="0" x2="300" y2="300"
style="stroke:rgb(99,99,99);stroke-width:2"/>

<rect x="310" y="100" width="150" height="100" 
style="fill:pink;stroke:red;stroke-width:2"/>

<circle cx="550" cy="100" r="60" stroke="black"
sreoke-width="2" fill="pink" />

<text x="90" y="70" fill="black" font-size="20">百度前端Day34</text>

<!-- 花 -->
<path d="M153 334
C153 334 151 334 151 334
C151 339 153 344 156 344
C164 344 171 339 171 334
C171 322 164 314 156 314
C142 314 131 322 131 334
C131 350 142 364 156 364
C175 364 191 350 191 334
C191 311 175 294 156 294
C131 294 111 311 111 334
C111 361 131 384 156 384
C186 384 211 361 211 334
C211 300 186 274 156 274"
style="fill:white;stroke:red;stroke-width:2"/>
<line x1="156" y1="384" x2="156" y2="500"
style="stroke:#EE6363;stroke-width:4"/>

<!-- 树 -->
<polygon points="750,150 670,200 830,200"
style="fill:green;stroke:black;stroke-width:1" />
<polygon points="750,120 670,170 830,170"
style="fill:green;stroke:black;stroke-width:1" />
<polygon points="750,90 680,140 820,140"
style="fill:green;stroke:black;stroke-width:1" />
<rect x="735" y="200" width="30" height="80" 
style="fill:#CDAF95;stroke:black;stroke-width:2"/>

</svg>